<svg width="65" height="55" viewBox="0 0 65 55" fill="none" xmlns="http://www.w3.org/2000/svg">
<path d="M1.25246 43.7505C3.99839 43.4153 6.78285 43.7764 9.52877 43.3253C10.9081 43.1062 12.1715 42.6421 13.422 42.1521C10.3281 40.167 7.54337 37.8981 4.95242 35.1781C4.02426 34.2111 4.6945 32.5868 6.0482 32.5483C7.15692 32.5998 8.23977 32.5098 9.29674 32.2904C6.60228 28.8742 4.51393 25.2001 2.88967 21.0749C2.45146 19.9662 3.74047 18.8448 4.78479 19.1798C5.39062 19.4248 6.00939 19.5924 6.64109 19.7212C4.72038 15.106 4.32071 10.4523 5.39062 5.3472C5.63559 4.17407 7.18251 3.89056 7.96891 4.66402C14.131 10.7226 21.9174 13.6362 30.2452 15.0284C29.5102 9.33038 33.5584 3.27151 38.8694 1.28611C43.2784 -0.3511 49.1955 0.770559 52.1605 4.48317C54.1459 3.2327 56.8916 2.82009 59.0961 2.43336C60.2563 2.23985 61.3779 3.37445 60.6948 4.52171C59.8954 5.86247 59.1349 7.29323 58.297 8.65986C59.9987 8.15697 61.752 7.84759 63.5051 7.62849C64.7685 7.46086 65.529 9.40745 64.5624 10.1809C62.5125 11.8181 60.4757 13.6874 58.297 15.1828C58.2326 29.6598 54.0042 41.8037 41.0742 50.0412C30.2966 56.9255 10.2634 55.7653 0.891604 46.3932H0.878666C0.46606 46.29 0.246959 45.9806 0.169613 45.6456C-0.191242 45.1042 0.0663913 44.434 0.543406 44.1761C0.723974 43.9567 0.956012 43.7891 1.25246 43.7505Z" fill="white"/>
</svg>
