<svg width="21" height="20" viewBox="0 0 21 20" fill="none" xmlns="http://www.w3.org/2000/svg">
<path d="M20.0487 11.276C20.6797 11.1702 21.0969 10.6195 20.9804 10.0458L20.4324 7.34511C20.3766 7.06955 20.2025 6.82565 19.9489 6.66686C19.6951 6.50807 19.3821 6.44733 19.0792 6.4981L17.4674 6.76827C17.3425 6.57326 17.2072 6.38376 17.0625 6.20033L17.9918 4.97326C18.1665 4.74241 18.2333 4.45811 18.1775 4.18268C18.1216 3.90713 17.9475 3.66322 17.6938 3.50443L15.2055 1.94699C14.6775 1.61635 13.9538 1.7373 13.5899 2.21784L12.6604 3.44504C12.4203 3.3874 12.1775 3.34039 11.9324 3.3039L11.6351 1.83871C11.5187 1.26511 10.9121 0.885444 10.2819 0.991707L7.3111 1.48989C7.00799 1.54066 6.73969 1.69891 6.56503 1.92948C6.39036 2.16033 6.32355 2.44464 6.3794 2.72006L6.67673 4.18538C6.46206 4.29905 6.25362 4.42188 6.05184 4.55346L4.70207 3.70861C4.44814 3.54982 4.1354 3.48935 3.83244 3.53985C3.52933 3.59063 3.26103 3.74888 3.08636 3.97959L1.37318 6.24167C1.19836 6.47238 1.1317 6.75669 1.18755 7.03211C1.2434 7.30767 1.41748 7.55171 1.67125 7.7105L3.02103 8.55521C2.95762 8.77366 2.90592 8.99427 2.86577 9.21716L1.25392 9.48747C0.95081 9.53824 0.682512 9.69649 0.507846 9.92706C0.333031 10.1579 0.266366 10.4422 0.322218 10.7176L0.870365 13.4184C0.986809 13.992 1.59244 14.3718 2.22355 14.2654L3.8354 13.9951C3.96029 14.1901 4.09555 14.3797 4.24029 14.5632L3.31096 15.7901C3.13629 16.0209 3.06947 16.3051 3.12533 16.5807C3.18118 16.8562 3.35525 17.1001 3.60903 17.2589L6.09732 18.8164C6.62532 19.147 7.34918 19.0259 7.71288 18.5455L8.64221 17.3184C8.88236 17.3759 9.12517 17.423 9.37036 17.4596L9.66769 18.9248C9.77095 19.4336 10.2594 19.7896 10.8089 19.7896C10.8788 19.7896 10.9498 19.7839 11.0209 19.7719L13.9917 19.2737C14.2948 19.223 14.5631 19.0647 14.7378 18.8341C14.9124 18.6033 14.9792 18.319 14.9234 18.0436L14.6261 16.5782C14.8407 16.4646 15.0492 16.3417 15.2509 16.2102L16.6006 17.055C16.8545 17.2139 17.1669 17.2747 17.4702 17.2238C17.7733 17.173 18.0416 17.0147 18.2163 16.784L19.9295 14.5219C20.2933 14.0415 20.16 13.384 19.6315 13.0533L18.2818 12.2083C18.3452 11.99 18.3969 11.7692 18.437 11.5465L20.0487 11.276ZM17.1621 9.61231C16.6293 9.7016 16.2352 10.1137 16.2121 10.6056C16.1855 11.1679 16.0563 11.7182 15.8281 12.2415C15.6286 12.6992 15.8032 13.2215 16.2493 13.5007L17.357 14.1941L16.9615 14.7164L15.8539 14.0231C15.4075 13.7438 14.8086 13.7819 14.4098 14.1147C13.9533 14.4951 13.4338 14.8013 12.8655 15.0246C12.3683 15.2199 12.0855 15.7016 12.1837 16.1856L12.4277 17.3883L11.7419 17.5034L11.4979 16.3008C11.3997 15.8166 10.9465 15.4584 10.4055 15.4372C9.78651 15.4129 9.18103 15.2954 8.60547 15.0881C8.46592 15.0379 8.32118 15.0138 8.17792 15.0138C7.80444 15.0138 7.44251 15.1781 7.22058 15.471L6.45792 16.478L5.8834 16.1184L6.64606 15.1116C6.95318 14.706 6.9114 14.1615 6.54532 13.7987C6.12681 13.3838 5.79007 12.9114 5.54429 12.3945C5.32932 11.9427 4.79821 11.6854 4.2671 11.775L2.94429 11.9968L2.81762 11.3734L4.14059 11.1516C4.67333 11.0623 5.0674 10.6502 5.09051 10.1583C5.11718 9.59602 5.24636 9.04572 5.47451 8.52208C5.67407 8.06444 5.49925 7.54228 5.05318 7.26295L3.94547 6.56976L4.34103 6.04746L5.44873 6.7408C5.8951 7.02026 6.49377 6.98201 6.89288 6.64922C7.34932 6.26874 7.86888 5.96262 8.43747 5.73918C8.93436 5.54376 9.21717 5.06214 9.11895 4.5781L8.87495 3.37554L9.56073 3.26053L9.80473 4.46309C9.90295 4.9474 10.3563 5.30565 10.8973 5.32666C11.5158 5.3509 12.1212 5.46834 12.6969 5.67575C13.2007 5.8573 13.7749 5.69824 14.0819 5.29285L14.8447 4.28571L15.4192 4.64531L14.6566 5.65231C14.3495 6.05797 14.3912 6.60248 14.7573 6.96531C15.1758 7.38013 15.5126 7.85231 15.7582 8.36908C15.9729 8.82093 16.5034 9.07831 17.0354 8.98888L18.3584 8.76706L18.4849 9.3905L17.1621 9.61231Z" fill="#E84949"/>
<path d="M12.9714 7.31832C12.0714 6.75508 10.9835 6.54417 9.90901 6.72424C8.83434 6.90444 7.90115 7.45448 7.28145 8.27266C6.00204 9.96182 6.473 12.2824 8.33108 13.4453C9.03804 13.8879 9.8456 14.1 10.6452 14.1C11.9472 14.1 13.2286 13.5374 14.0212 12.491C15.3004 10.8018 14.8295 8.48128 12.9714 7.31832ZM12.1074 11.2931C11.5546 12.0228 10.4517 12.2079 9.64901 11.7055C8.84619 11.203 8.64264 10.2003 9.19538 9.47064C9.19552 9.47051 9.19553 9.47051 9.19553 9.47051C9.46308 9.11697 9.86634 8.87939 10.3306 8.80155C10.4388 8.7835 10.5474 8.77448 10.6551 8.77448C11.0096 8.77448 11.3555 8.87158 11.6537 9.05825C12.4566 9.56074 12.6601 10.5633 12.1074 11.2931Z" fill="#E84949"/>
</svg>
