<svg width="29" height="27" viewBox="0 0 29 27" fill="none" xmlns="http://www.w3.org/2000/svg">
<path d="M25.7877 19.0499L24.0619 17.4812C24.2502 17.129 24.4151 16.7672 24.556 16.397H26.9964C27.7984 16.397 28.4487 15.8059 28.4487 15.0767V11.2064C28.4487 10.4774 27.7985 9.88615 26.9964 9.88615H24.5559C24.415 9.51605 24.2501 9.1543 24.0619 8.80211L25.7877 7.23322C26.3548 6.71767 26.3548 5.88171 25.7877 5.36615L22.7773 2.62945C22.2101 2.11403 21.2908 2.11403 20.7236 2.62945L18.9978 4.19834C18.6104 4.0273 18.2126 3.87726 17.8053 3.74932V1.5306C17.8053 0.801573 17.1551 0.210327 16.353 0.210327H12.0957C11.2938 0.210327 10.6434 0.801438 10.6434 1.5306V3.74932C10.2363 3.8774 9.83837 4.02716 9.45096 4.19834L7.72533 2.62945C7.45304 2.38191 7.08356 2.24278 6.69837 2.24278C6.31319 2.24278 5.94385 2.38191 5.67141 2.62945L2.66089 5.36615C2.38859 5.61369 2.23556 5.94959 2.23556 6.29975C2.23556 6.64992 2.38859 6.98568 2.66089 7.23336L4.38667 8.80225C4.19852 9.1543 4.03348 9.51605 3.89274 9.88629H1.4523C0.650222 9.88629 0 10.4774 0 11.2064V15.0769C0 15.8059 0.650222 16.3971 1.4523 16.3971H3.89274C4.03378 16.7672 4.19852 17.129 4.38682 17.4813L2.66104 19.0501C2.09393 19.5656 2.09393 20.4016 2.66104 20.9171L5.67141 23.6538C6.23867 24.1691 7.15793 24.1694 7.72519 23.6538L9.45096 22.0849C9.83822 22.2561 10.2363 22.4061 10.6434 22.5341V24.7528C10.6434 25.4818 11.2936 26.0731 12.0957 26.0731H16.3532C17.1551 26.0731 17.8055 25.482 17.8055 24.7528V22.5341C18.2124 22.406 18.6105 22.2561 18.9979 22.0849L20.7237 23.6538C21.291 24.1692 22.2102 24.1692 22.7775 23.6538L25.7879 20.9171C26.355 20.4014 26.355 19.5655 25.7877 19.0499ZM22.0486 14.7815C21.8486 15.5733 21.5067 16.3236 21.0323 17.0115C20.6727 17.5329 20.7573 18.2111 21.236 18.6462L22.7071 19.9835L21.7505 20.8533L20.2793 19.5158C19.8004 19.0806 19.0547 19.0041 18.4812 19.3306C17.7241 19.762 16.899 20.0728 16.0284 20.2544C15.3686 20.392 14.901 20.9259 14.901 21.5412V23.4325H13.5481V21.5412C13.5481 20.9259 13.0806 20.3921 12.4207 20.2544C11.5502 20.0728 10.725 19.762 9.968 19.3306C9.39496 19.0043 8.64874 19.0805 8.16993 19.5158L6.69867 20.8533L5.74207 19.9835L7.21319 18.6462C7.69185 18.211 7.7763 17.5329 7.41689 17.0115C6.94252 16.3236 6.60059 15.5733 6.40059 14.7815C6.24919 14.1818 5.66207 13.7567 4.98519 13.7567H2.90444V12.5268H4.98474C5.66148 12.5268 6.24859 12.1018 6.40015 11.5022C6.6003 10.7103 6.94207 9.96009 7.41644 9.27228C7.77615 8.75093 7.69156 8.07268 7.21289 7.63753L5.74163 6.30002L6.69837 5.43039L8.16948 6.7679C8.64815 7.20319 9.39437 7.27955 9.9677 6.95295C10.7244 6.52171 11.5496 6.211 12.4203 6.02932C13.0801 5.89167 13.5477 5.3578 13.5477 4.74245V2.85087H14.9006V4.74218C14.9006 5.35753 15.3681 5.89127 16.028 6.02905C16.8988 6.21073 17.7239 6.52144 18.4806 6.95268C19.0541 7.27955 19.8003 7.20305 20.2788 6.76763L21.7501 5.43012L22.7067 6.29975L21.2354 7.63726C20.7567 8.07255 20.6723 8.75066 21.0319 9.27201C21.5062 9.95982 21.848 10.7101 22.0481 11.5019C22.1996 12.1015 22.7868 12.5266 23.4636 12.5266H25.5439V13.7565H23.4636C22.787 13.7566 22.2 14.1816 22.0486 14.7815Z" fill="#E84949"/>
<path d="M14.2243 8.06836C11.1471 8.06836 8.64371 10.3442 8.64371 13.1416C8.64371 15.9391 11.1471 18.2149 14.2243 18.2149C17.3015 18.2149 19.8049 15.9391 19.8049 13.1416C19.8049 10.3442 17.3016 8.06836 14.2243 8.06836ZM14.2243 15.5745C12.7486 15.5745 11.5482 14.4832 11.5482 13.1416C11.5482 11.8001 12.7487 10.7088 14.2243 10.7088C15.6999 10.7088 16.9004 11.8001 16.9004 13.1416C16.9004 14.4832 15.7 15.5745 14.2243 15.5745Z" fill="#E84949"/>
</svg>
